<svg width="160" height="160" viewBox="0 0 160 160" fill="none" xmlns="http://www.w3.org/2000/svg">
  <rect width="160" height="160" rx="32" fill="#E8F5E9"/>
  <g transform="translate(24,24)">
    <rect x="0" y="72" width="20" height="40" rx="4" fill="#1B5E20"/>
    <rect x="28" y="56" width="20" height="56" rx="4" fill="#1B5E20"/>
    <rect x="56" y="40" width="20" height="72" rx="4" fill="#1B5E20"/>
    <rect x="84" y="24" width="20" height="88" rx="4" fill="#1B5E20"/>
    <path d="M86 6C68 6 52 20 52 38c0 14 10 26 24 30-2-8 2-18 10-26 8-8 18-12 26-10C106 16 96 6 86 6Z" fill="#2E7D32"/>
    <path d="M60 78c10-18 26-28 48-32" stroke="#A5D6A7" stroke-width="6" stroke-linecap="round"/>
  </g>
  <text x="80" y="148" text-anchor="middle" font-family="Arial, sans-serif" font-size="18" fill="#1B5E20" font-weight="700">EcoFinanzas</text>
</svg>
